<svg width="439" height="166" viewBox="0 0 439 166" fill="none" xmlns="http://www.w3.org/2000/svg">
<path d="M3.19369e-05 165.677V31.5201H25.807V44.128H26.398C32.899 35.2631 42.355 28.7621 56.145 28.7621C82.937 28.7621 100.076 50.6291 100.076 82.1491C100.076 114.851 82.346 135.536 56.342 135.536C42.158 135.536 32.899 129.823 27.186 121.155H26.792V165.677H3.19369e-05ZM50.629 113.275C64.222 113.275 72.89 102.046 72.89 82.9371C72.89 63.8281 66.192 50.432 49.644 50.432C32.899 50.432 26.201 64.8131 26.201 82.9371C26.201 101.258 34.672 113.275 50.629 113.275ZM159.627 135.536C126.137 135.536 107.225 112.093 107.225 81.9521C107.225 52.0081 127.516 28.7621 157.066 28.7621C189.571 28.7621 206.907 53.5841 206.907 89.6351H133.623C135.593 105.198 144.261 114.851 159.43 114.851C169.871 114.851 175.978 110.123 178.933 102.44H205.331C201.588 120.367 185.631 135.536 159.627 135.536ZM157.46 49.4471C143.276 49.4471 136.381 57.9181 134.017 71.1171H178.933C178.145 58.3121 169.674 49.4471 157.46 49.4471ZM211.079 49.2501V31.5201H225.066V4.72665e-05H251.267V31.5201H268.603V49.2501H251.267V102.834C251.267 110.32 255.404 112.881 261.314 112.881C264.663 112.881 269.194 112.684 269.194 112.684V132.384C269.194 132.384 263.087 132.778 252.449 132.778C239.447 132.778 225.066 127.656 225.066 108.547V49.2501H211.079ZM274.172 49.2501V31.5201H288.159V4.72665e-05H314.36V31.5201H331.696V49.2501H314.36V102.834C314.36 110.32 318.497 112.881 324.407 112.881C327.756 112.881 332.287 112.684 332.287 112.684V132.384C332.287 132.384 326.18 132.778 315.542 132.778C302.54 132.778 288.159 127.656 288.159 108.547V49.2501H274.172ZM391.613 135.536C358.123 135.536 339.211 112.093 339.211 81.9521C339.211 52.0081 359.502 28.7621 389.052 28.7621C421.557 28.7621 438.893 53.5841 438.893 89.6351H365.609C367.579 105.198 376.247 114.851 391.416 114.851C401.857 114.851 407.964 110.123 410.919 102.44H437.317C433.574 120.367 417.617 135.536 391.613 135.536ZM389.446 49.4471C375.262 49.4471 368.367 57.9181 366.003 71.1171H410.919C410.131 58.3121 401.66 49.4471 389.446 49.4471Z" fill="#111111"/>
</svg>
