<svg width="101" height="137" viewBox="0 0 101 137" fill="none" xmlns="http://www.w3.org/2000/svg">
<path d="M3.19369e-05 136.915V2.75797H25.807V15.366H26.398C32.899 6.50097 42.355 -3.22461e-05 56.145 -3.22461e-05C82.937 -3.22461e-05 100.076 21.867 100.076 53.387C100.076 86.089 82.346 106.774 56.342 106.774C42.158 106.774 32.899 101.061 27.186 92.393H26.792V136.915H3.19369e-05ZM50.629 84.513C64.222 84.513 72.89 73.284 72.89 54.175C72.89 35.066 66.192 21.67 49.644 21.67C32.899 21.67 26.201 36.051 26.201 54.175C26.201 72.496 34.672 84.513 50.629 84.513Z" fill="#111111"/>
</svg>
