<svg width="678" height="236" viewBox="0 0 678 236" fill="none" xmlns="http://www.w3.org/2000/svg">
<path d="M8.668 214.096V79.939H34.475V92.547H35.066C41.567 83.682 51.023 77.181 64.813 77.181C91.605 77.181 108.744 99.048 108.744 130.568C108.744 163.27 91.014 183.955 65.01 183.955C50.826 183.955 41.567 178.242 35.854 169.574H35.46V214.096H8.668ZM59.297 161.694C72.89 161.694 81.558 150.465 81.558 131.356C81.558 112.247 74.86 98.851 58.312 98.851C41.567 98.851 34.869 113.232 34.869 131.356C34.869 149.677 43.34 161.694 59.297 161.694Z" fill="#111111"/>
<path d="M8.668 214.096V79.939H34.475V92.547H35.066C41.567 83.682 51.023 77.181 64.813 77.181C91.605 77.181 108.744 99.048 108.744 130.568C108.744 163.27 91.014 183.955 65.01 183.955C50.826 183.955 41.567 178.242 35.854 169.574H35.46V214.096H8.668ZM59.297 161.694C72.89 161.694 81.558 150.465 81.558 131.356C81.558 112.247 74.86 98.851 58.312 98.851C41.567 98.851 34.869 113.232 34.869 131.356C34.869 149.677 43.34 161.694 59.297 161.694Z" fill="#111111"/>
<path d="M234.668 214.096V79.939H260.475V92.547H261.066C267.567 83.682 277.023 77.181 290.813 77.181C317.605 77.181 334.744 99.048 334.744 130.568C334.744 163.27 317.014 183.955 291.01 183.955C276.826 183.955 267.567 178.242 261.854 169.574H261.46V214.096H234.668ZM285.297 161.694C298.89 161.694 307.558 150.465 307.558 131.356C307.558 112.247 300.86 98.851 284.312 98.851C267.567 98.851 260.869 113.232 260.869 131.356C260.869 149.677 269.34 161.694 285.297 161.694ZM394.295 183.955C360.805 183.955 341.893 160.512 341.893 130.371C341.893 100.427 362.184 77.181 391.734 77.181C424.239 77.181 441.575 102.003 441.575 138.054H368.291C370.261 153.617 378.929 163.27 394.098 163.27C404.539 163.27 410.646 158.542 413.601 150.859H439.999C436.256 168.786 420.299 183.955 394.295 183.955ZM392.128 97.866C377.944 97.866 371.049 106.337 368.685 119.536H413.601C412.813 106.731 404.342 97.866 392.128 97.866ZM445.747 97.669V79.939H459.734V48.419H485.935V79.939H503.271V97.669H485.935V151.253C485.935 158.739 490.072 161.3 495.982 161.3C499.331 161.3 503.862 161.103 503.862 161.103V180.803C503.862 180.803 497.755 181.197 487.117 181.197C474.115 181.197 459.734 176.075 459.734 156.966V97.669H445.747ZM508.84 97.669V79.939H522.827V48.419H549.028V79.939H566.364V97.669H549.028V151.253C549.028 158.739 553.165 161.3 559.075 161.3C562.424 161.3 566.955 161.103 566.955 161.103V180.803C566.955 180.803 560.848 181.197 550.21 181.197C537.208 181.197 522.827 176.075 522.827 156.966V97.669H508.84ZM626.281 183.955C592.791 183.955 573.879 160.512 573.879 130.371C573.879 100.427 594.17 77.181 623.72 77.181C656.225 77.181 673.561 102.003 673.561 138.054H600.277C602.247 153.617 610.915 163.27 626.084 163.27C636.525 163.27 642.632 158.542 645.587 150.859H671.985C668.242 168.786 652.285 183.955 626.281 183.955ZM624.114 97.866C609.93 97.866 603.035 106.337 600.671 119.536H645.587C644.799 106.731 636.328 97.866 624.114 97.866Z" fill="#111111"/>
</svg>
