<svg width="22" height="20" viewBox="0 0 22 20" fill="none" xmlns="http://www.w3.org/2000/svg">
<path d="M17.75 15.75C16.25 10.25 10.75 8.75 10.75 8.75C10.75 8.75 6.75 12.25 6.75 18.75" stroke="#D1E8F9" stroke-width="1.5" stroke-linecap="round" stroke-linejoin="round"/>
<path d="M0.75 7.77498C2.083 6.76498 5.95 5.55198 10.75 8.78498C11.917 7.09998 15.55 4.13498 20.75 5.75298" stroke="#D1E8F9" stroke-width="1.5" stroke-linecap="round" stroke-linejoin="round"/>
<path d="M13.75 2.75C12.75 3.417 10.75 5.55 10.75 8.75C10.417 7.083 8.75 3.35 4.75 1.75M4.75 11.75C5.737 10.75 8.302 8.75 10.67 8.75C11.656 9.917 12.557 11.75 12.15 15.75M11.75 18.242V18.252M15.75 0.75V0.76M18.75 9.75V9.76M9.75 1.75V1.76M16.75 8.75V8.76M1.75 0.75V0.76M2.75 13.75V13.76" stroke="#D1E8F9" stroke-width="1.5" stroke-linecap="round" stroke-linejoin="round"/>
</svg>
