<svg width="664" height="166" viewBox="0 0 664 166" fill="none" xmlns="http://www.w3.org/2000/svg">
<path d="M3.19369e-05 165.677V31.52H25.807V44.128H26.398C32.899 35.263 42.355 28.762 56.145 28.762C82.937 28.762 100.076 50.629 100.076 82.149C100.076 114.851 82.346 135.536 56.342 135.536C42.158 135.536 32.899 129.823 27.186 121.155H26.792V165.677H3.19369e-05ZM50.629 113.275C64.222 113.275 72.89 102.046 72.89 82.937C72.89 63.828 66.192 50.432 49.644 50.432C32.899 50.432 26.201 64.813 26.201 82.937C26.201 101.258 34.672 113.275 50.629 113.275ZM160.021 135.536C128.698 135.536 107.225 112.29 107.225 82.149C107.225 52.008 128.698 28.762 160.021 28.762C191.344 28.762 212.817 52.008 212.817 82.149C212.817 112.29 191.344 135.536 160.021 135.536ZM160.021 115.048C176.372 115.048 185.631 101.849 185.631 82.149C185.631 62.449 176.372 49.053 160.021 49.053C143.473 49.053 134.411 62.449 134.411 82.149C134.411 101.849 143.473 115.048 160.021 115.048ZM224.877 165.677V31.52H250.684V44.128H251.275C257.776 35.263 267.232 28.762 281.022 28.762C307.814 28.762 324.953 50.629 324.953 82.149C324.953 114.851 307.223 135.536 281.219 135.536C267.035 135.536 257.776 129.823 252.063 121.155H251.669V165.677H224.877ZM275.506 113.275C289.099 113.275 297.767 102.046 297.767 82.937C297.767 63.828 291.069 50.432 274.521 50.432C257.776 50.432 251.078 64.813 251.078 82.937C251.078 101.258 259.549 113.275 275.506 113.275ZM384.504 135.536C351.014 135.536 332.102 112.093 332.102 81.952C332.102 52.008 352.393 28.762 381.943 28.762C414.448 28.762 431.784 53.584 431.784 89.635H358.5C360.47 105.198 369.138 114.851 384.307 114.851C394.748 114.851 400.855 110.123 403.81 102.44H430.208C426.465 120.367 410.508 135.536 384.504 135.536ZM382.337 49.447C368.153 49.447 361.258 57.918 358.894 71.117H403.81C403.022 58.312 394.551 49.447 382.337 49.447ZM435.956 49.25V31.52H449.943V-1.37687e-05H476.144V31.52H493.48V49.25H476.144V102.834C476.144 110.32 480.281 112.881 486.191 112.881C489.54 112.881 494.071 112.684 494.071 112.684V132.384C494.071 132.384 487.964 132.778 477.326 132.778C464.324 132.778 449.943 127.656 449.943 108.547V49.25H435.956ZM499.049 49.25V31.52H513.036V-1.37687e-05H539.237V31.52H556.573V49.25H539.237V102.834C539.237 110.32 543.374 112.881 549.284 112.881C552.633 112.881 557.164 112.684 557.164 112.684V132.384C557.164 132.384 551.057 132.778 540.419 132.778C527.417 132.778 513.036 127.656 513.036 108.547V49.25H499.049ZM616.49 135.536C583 135.536 564.088 112.093 564.088 81.952C564.088 52.008 584.379 28.762 613.929 28.762C646.434 28.762 663.77 53.584 663.77 89.635H590.486C592.456 105.198 601.124 114.851 616.293 114.851C626.734 114.851 632.841 110.123 635.796 102.44H662.194C658.451 120.367 642.494 135.536 616.49 135.536ZM614.323 49.447C600.139 49.447 593.244 57.918 590.88 71.117H635.796C635.008 58.312 626.537 49.447 614.323 49.447Z" fill="#111111"/>
</svg>
